<svg viewBox="0 0 406.24 365.31" xmlns="http://www.w3.org/2000/svg"><path d="m345.1 229.07a66.49 66.49 0 0 0 -17.05-43.57 85.15 85.15 0 0 0 -101.13-109.09 7.5 7.5 0 0 0 3.55 14.59 70.14 70.14 0 0 1 85 83.58 66.69 66.69 0 0 0 -61.3-6.88 98.33 98.33 0 0 0 -191.59 26.46 87.37 87.37 0 0 0 24.78 171.15h227.87a71.4 71.4 0 0 0 29.87-136.24zm-29.87 121.24h-227.87a72.37 72.37 0 0 1 -15.72-143 7.49 7.49 0 0 0 5.87-7.45v-.19c0-.42 0-.84 0-1.26a83.41 83.41 0 0 1 83.32-83.31 82.33 82.33 0 0 1 52.33 18.49 83.63 83.63 0 0 1 28.92 46.31 7.5 7.5 0 0 0 11 4.89 51.81 51.81 0 0 1 77.03 45.21c0 1 0 2.13-.13 3.48a7.51 7.51 0 0 0 4.87 7.53 56.4 56.4 0 0 1 -19.62 109.27z"/><path d="m199.07 96.16c.09.2.06.12 0 0a7.5 7.5 0 1 0 2.6-9 7.58 7.58 0 0 0 -2.6 9c-.07-.16-.07-.23 0 0z"/><path d="m247.14 58.6a7.5 7.5 0 0 0 7.5-7.5v-43.6a7.5 7.5 0 0 0 -15 0v43.6a7.5 7.5 0 0 0 7.5 7.5z"/><path d="m323.51 90.23a7.47 7.47 0 0 0 5.3-2.19l30.83-30.83a7.5 7.5 0 1 0 -10.64-10.61l-30.79 30.83a7.5 7.5 0 0 0 5.3 12.8z"/><path d="m398.74 151.6h-43.6a7.5 7.5 0 0 0 0 15h43.6a7.5 7.5 0 0 0 0-15z"/><path d="m165.47 88a7.5 7.5 0 0 0 10.6-10.6l-30.83-30.8a7.5 7.5 0 0 0 -10.6 10.61z"/></svg>