<svg xmlns="http://www.w3.org/2000/svg" viewBox="0 0 416.96 348.4"><title>Few-Clouds-moon</title><g id="Layer_2" data-name="Layer 2"><g id="Layer_1-2" data-name="Layer 1"><path d="M226.25,88.16A7.5,7.5,0,1,0,214,85.72,7.57,7.57,0,0,0,226.25,88.16Z"/><path d="M413.18,125.08a7.49,7.49,0,0,0-9.17,1.36,59.89,59.89,0,1,1-44.29-101.1A7.5,7.5,0,0,0,363,11.13,104.7,104.7,0,0,0,222.19,58.31,7.5,7.5,0,1,0,235.64,65a89.74,89.74,0,0,1,95.62-48.64l-.77.33a74.88,74.88,0,1,0,60.09,137.18l.78-.35a89.95,89.95,0,0,1-50.1,37.34,66.78,66.78,0,0,0-87-40A98.33,98.33,0,0,0,62.58,177.24,87.38,87.38,0,0,0,87.36,348.4H315.23A71.4,71.4,0,0,0,345.1,212.16c0-2.27-.18-4.51-.43-6.72a106.39,106.39,0,0,0,13.39-4.81,104.48,104.48,0,0,0,58.6-67,7.5,7.5,0,0,0-3.48-8.59ZM371.62,277a56.46,56.46,0,0,1-56.39,56.39H87.37a72.37,72.37,0,0,1-15.73-143,7.5,7.5,0,0,0,5.87-7.45v-.32c0-.38,0-.75,0-1.13a83.42,83.42,0,0,1,83.32-83.32,82.38,82.38,0,0,1,52.33,18.49A83.63,83.63,0,0,1,242.06,163a7.49,7.49,0,0,0,11,4.88,51.81,51.81,0,0,1,77.08,45.25c0,1,0,2.13-.13,3.49a7.49,7.49,0,0,0,4.87,7.52A56.64,56.64,0,0,1,371.62,277Z"/></g></g></svg>