<svg viewBox="0 0 477 292.79" xmlns="http://www.w3.org/2000/svg"><path d="m154.75 134a9.1 9.1 0 0 1 -2 10.2 21.36 21.36 0 0 0 15.1 36.45h275.33a6 6 0 0 0 0-12h-275.36a9.35 9.35 0 0 1 -6.61-16 21.35 21.35 0 0 0 -15.1-36.45h-19l20.17-20.93 1.78 11.63a6 6 0 0 0 7.32 4.93l39.62-9.43 27.9 16.74a6 6 0 0 0 5.9.16l31.27-16.55 21.24 10.62a6 6 0 0 0 4.79.25 6 6 0 0 0 3.44-3.35l4.71-11.52 37.65 44.72h-121.9a6 6 0 0 0 0 12h184a18.06 18.06 0 0 0 .05-36.12l-67.22-.61-14.15-16.74h133.69a6 6 0 0 0 0-12h-143.79l-74-87.86a6 6 0 0 0 -8.91-.3l-110.22 114.37h-104.45a6 6 0 0 0 0 12h140.11a9.09 9.09 0 0 1 8.64 5.79zm240.19-2.63a6.06 6.06 0 1 1 0 12.12h-46.34l-10.6-12.66zm-170.24-116.37 61.83 73.43-4.64 11.35-18.21-9.11a6 6 0 0 0 -5.49.07l-31 16.41-27.1-16.29a6 6 0 0 0 -4.48-.7l-35.61 8.49-2.23-14.25z"/><path d="m66.25 159.53-26.81 26.22h-16.44a6 6 0 0 0 0 12h65.17a25.11 25.11 0 0 0 0-50.22h-70.64a6 6 0 0 0 0 12zm35 13.11a13.12 13.12 0 0 1 -13.11 13.11h-31.54l26.82-26.22h4.75a13.12 13.12 0 0 1 13.11 13.11z"/><path d="m131 238.23h-90a6 6 0 0 0 0 12h90a19.62 19.62 0 0 0 0-39.23h-106.64a6 6 0 0 0 0 12h106.64a7.62 7.62 0 0 1 0 15.23z"/><path d="m194.79 206.13a17.94 17.94 0 1 0 0 35.87h128.21a17.94 17.94 0 0 0 0-35.87zm134.14 17.94a5.94 5.94 0 0 1 -5.93 5.93h-128.21a5.94 5.94 0 1 1 0-11.87h128.21a6 6 0 0 1 5.93 5.94z"/><path d="m471 232.83h-78a15.49 15.49 0 0 0 -10.95 26.44 3.5 3.5 0 0 1 -2.47 6h-356.58a6 6 0 0 0 0 12h356.58a15.49 15.49 0 0 0 10.95-26.44 3.49 3.49 0 0 1 2.47-6h23l37.39 45.76a6 6 0 1 0 9.29-7.6l-31.19-38.16h39.51a6 6 0 0 0 0-12z"/><path d="m381 208.23a16 16 0 0 0 16 16h46a6 6 0 0 0 0-12h-46a4 4 0 0 1 0-8h62a6 6 0 0 0 0-12h-62a16 16 0 0 0 -16 16z"/></svg>