<svg viewBox="0 0 512 408.72" xmlns="http://www.w3.org/2000/svg"><path d="m159.64 356.39-38.64 38.61a8 8 0 0 0 11.34 11.34l38.66-38.61a8 8 0 1 0 -11.34-11.34z"/><path d="m275.55 356.39a8 8 0 0 0 -11.34 0l-38.65 38.61a8 8 0 0 0 11.34 11.34l38.65-38.65a8 8 0 0 0 0-11.3z"/><path d="m482.35 132.89a121.36 121.36 0 0 0 -69.25-39.81 170.72 170.72 0 0 0 -310.69 14.59 113.32 113.32 0 0 0 10.91 226.11h277.28a121.39 121.39 0 0 0 91.75-200.89zm-91.74 184.86h-277.29a97.28 97.28 0 0 1 -4.84-194.44 8 8 0 0 0 7.15-5.28 154.67 154.67 0 0 1 284.87-14.26 8 8 0 0 0 6 4.45 105.37 105.37 0 0 1 -15.92 209.53z"/><path d="m379.67 356.39-38.67 38.61a8 8 0 0 0 11.34 11.34l38.66-38.61a8 8 0 1 0 -11.34-11.34z"/></svg>