<svg viewBox="0 0 79.7 57.8" xmlns="http://www.w3.org/2000/svg"><g fill="none" stroke="#000" stroke-miterlimit="10" stroke-width="3"><path d="m66.8 33.2h-.4a15 15 0 0 0 -12.3-6.5 14.76 14.76 0 0 0 -14.6 12.4h-.2a8.6 8.6 0 0 0 0 17.2h27.4a11.55 11.55 0 0 0 .1-23.1z"/><path d="m39.4 39.1h.2a14.67 14.67 0 0 1 14.6-12.4 15 15 0 0 1 12.3 6.5h.4a11.37 11.37 0 0 1 10.4 6.7 13.17 13.17 0 0 0 .8-4.4 12.16 12.16 0 0 0 -10.3-12 23.07 23.07 0 0 0 -44.3-7.9 8.66 8.66 0 0 0 -12.7 7.7v.3a12.17 12.17 0 0 0 2.9 24h17a8.8 8.8 0 0 1 8.7-8.5z"/></g></svg>