<svg viewBox="0 0 67.9 76.6" xmlns="http://www.w3.org/2000/svg"><g fill="none" stroke="#000" stroke-miterlimit="10" stroke-width="3"><path d="m33.95 0v76.6"/><path d="m.75 19.1 66.4 38.3"/><path d="m.75 57.4 66.4-38.3"/><path d="m41.15 16.5-7.2 7.2-7.2-7.2"/><path d="m38.95 9-5 5-5-5"/><path d="m26.75 60 7.2-7.2 7.2 7.2"/><path d="m28.95 67.6 5-5 5 5"/><path d="m18.65 21.2 2.7 9.8-9.9 2.6"/><path d="m11.05 19.3 1.8 6.8-6.8 1.8"/><path d="m49.25 55.4-2.7-9.8 9.9-2.7"/><path d="m56.85 57.2-1.8-6.8 6.8-1.8"/><path d="m11.45 42.9 9.9 2.7-2.7 9.8"/><path d="m6.05 48.6 6.8 1.8-1.8 6.8"/><path d="m56.45 33.6-9.9-2.6 2.7-9.8"/><path d="m61.85 27.9-6.8-1.8 1.8-6.8"/></g></svg>