<svg viewBox="0 0 40 40" xmlns="http://www.w3.org/2000/svg"><g fill="#333" fill-rule="evenodd"><path d="m5 14a1 1 0 0 0 -1 1v23h-2v-23a3 3 0 0 1 3-3h12a3 3 0 0 1 3 3v23h-2v-23a1 1 0 0 0 -1-1z"/><path d="m35 16h-7v-2h7a3 3 0 0 1 3 3v21h-2v-21a1 1 0 0 0 -1-1z"/><path d="m14 2a1 1 0 0 0 -1 1v10h-2v-10a3 3 0 0 1 3-3h12a3 3 0 0 1 3 3v35h-2v-35a1 1 0 0 0 -1-1z"/><path d="m40 40h-40v-2h40z"/><path d="m16 4a1 1 0 0 0 -1 1v2a1 1 0 0 0 1 1h2a1 1 0 0 0 1-1v-2a1 1 0 0 0 -1-1z"/><path d="m7 16a1 1 0 0 0 -1 1v2a1 1 0 0 0 1 1h2a1 1 0 0 0 1-1v-2a1 1 0 0 0 -1-1z"/><path d="m13 16a1 1 0 0 0 -1 1v2a1 1 0 0 0 1 1h2a1 1 0 0 0 1-1v-2a1 1 0 0 0 -1-1z"/><path d="m16 10a1 1 0 0 0 -1 1v2a1 1 0 0 0 1 1h2a1 1 0 0 0 1-1v-2a1 1 0 0 0 -1-1z"/><path d="m7 22a1 1 0 0 0 -1 1v2a1 1 0 0 0 1 1h2a1 1 0 0 0 1-1v-2a1 1 0 0 0 -1-1z"/><path d="m7 28a1 1 0 0 0 -1 1v2a1 1 0 0 0 1 1h2a1 1 0 0 0 1-1v-2a1 1 0 0 0 -1-1z"/><path d="m13 22a1 1 0 0 0 -1 1v2a1 1 0 0 0 1 1h2a1 1 0 0 0 1-1v-2a1 1 0 0 0 -1-1z"/><path d="m13 28a1 1 0 0 0 -1 1v2a1 1 0 0 0 1 1h2a1 1 0 0 0 1-1v-2a1 1 0 0 0 -1-1z"/><path d="m22 4a1 1 0 0 0 -1 1v2a1 1 0 0 0 1 1h2a1 1 0 0 0 1-1v-2a1 1 0 0 0 -1-1z"/><path d="m22 10a1 1 0 0 0 -1 1v2a1 1 0 0 0 1 1h2a1 1 0 0 0 1-1v-2a1 1 0 0 0 -1-1z"/><path d="m22 16a1 1 0 0 0 -1 1v2a1 1 0 0 0 1 1h2a1 1 0 0 0 1-1v-2a1 1 0 0 0 -1-1z"/><path d="m22 22a1 1 0 0 0 -1 1v2a1 1 0 0 0 1 1h2a1 1 0 0 0 1-1v-2a1 1 0 0 0 -1-1z"/><path d="m31 18a1 1 0 0 0 -1 1v2a1 1 0 0 0 1 1h2a1 1 0 0 0 1-1v-2a1 1 0 0 0 -1-1z"/><path d="m31 24a1 1 0 0 0 -1 1v2a1 1 0 0 0 1 1h2a1 1 0 0 0 1-1v-2a1 1 0 0 0 -1-1z"/><path d="m31 30a1 1 0 0 0 -1 1v2a1 1 0 0 0 1 1h2a1 1 0 0 0 1-1v-2a1 1 0 0 0 -1-1z"/><path d="m22 28a1 1 0 0 0 -1 1v2a1 1 0 0 0 1 1h2a1 1 0 0 0 1-1v-2a1 1 0 0 0 -1-1z"/></g></svg>