<svg viewBox="0 0 31.3 31.3" xmlns="http://www.w3.org/2000/svg"><g fill="#fffdfd"><path d="m15.7 24.7a9.1 9.1 0 1 1 9.1-9.1 9.13 9.13 0 0 1 -9.1 9.1zm0-17.2a8.1 8.1 0 1 0 8.1 8.1 8.07 8.07 0 0 0 -8.1-8.1z"/><path d="m15.6 31.3-.4-.9c-2.6-5.9-9.6-4-9.7-4l-1 .3.4-.9c2.3-6-4-9.6-4-9.7l-.9-.5.9-.4c5.8-2.6 4.1-9.4 4-9.7l-.3-.9.9.3c6 2.3 9.6-4 9.7-4l.5-.9.4.9c2.6 5.9 9.6 4 9.7 4l1-.3-.4.9c-2.3 6 4 9.6 4 9.7l.9.5-.9.4c-5.8 2.6-4.1 9.4-4 9.7l.3.9-.9-.4c-6-2.3-9.6 4-9.7 4zm-7.5-6.2a8.47 8.47 0 0 1 7.7 4.1c1.2-1.7 4.6-5.4 9.6-4-.3-2-.6-7.1 3.9-9.6-1.7-1.2-5.4-4.6-4-9.6-2 .3-7.1.6-9.6-3.9-1.2 1.7-4.6 5.4-9.6 4 .3 2 .6 7.1-3.9 9.6 1.7 1.2 5.4 4.6 4 9.6a8.44 8.44 0 0 1 1.9-.2z"/></g></svg>